# xmcd
#
# Track frame offsets:
#	182
#	14320
#	27920
#	40432
#	60687
#	72895
#	85657
#	102062
#	113390
#	128082
#	140452
#	153007
#	162772
#	174515
#	184150
#	194770
#	205262
#	215020
#	230925
#	240812
#
# Disc length: 3333 seconds
#
# Revision: 5
# Processed by: cddbd v1.5PL3 Copyright (c) Steve Scherf et al.
# Submitted via: MusicWizard 7.0.2
#
DISCID=0b0d0314
DTITLE=Elvis 2000 - Best Of The King - Love Me Tender - Side
DYEAR=1900
DGENRE=70er Jahre
TTITLE0=Are You Lonesome Tonight?
TTITLE1=Cant' Help Falling In Love
TTITLE2=In The Ghetto
TTITLE3=Suspicious Minds
TTITLE4=Love Me Tender
TTITLE5=Don't
TTITLE6=Always On My Mind
TTITLE7=One Night
TTITLE8=It's Now Or Never
TTITLE9=Love Me
TTITLE10=Kiss Me Quick
TTITLE11=She's Not You
TTITLE12=(Now And Then There's) A Fool Such As I
TTITLE13=(Marie's The Name) His Latest Flame
TTITLE14=(You're The) Devil In Disguise
TTITLE15=Stuck On You
TTITLE16=Heartbreak Hotel
TTITLE17=Fever
TTITLE18=Treat Me Nice
TTITLE19=Wooden Heart
EXTD=
EXTT0=
EXTT1=
EXTT2=
EXTT3=
EXTT4=
EXTT5=
EXTT6=
EXTT7=
EXTT8=
EXTT9=
EXTT10=
EXTT11=
EXTT12=
EXTT13=
EXTT14=
EXTT15=
EXTT16=
EXTT17=
EXTT18=
EXTT19=
PLAYORDER=
